<?xml version="1.0" encoding="UTF-8"?>
<svg width="15px" height="15px" viewBox="0 0 15 15" version="1.1" xmlns="http://www.w3.org/2000/svg" xmlns:xlink="http://www.w3.org/1999/xlink">
    <title>about</title>
    <g id="Page-1" stroke="none" stroke-width="1" fill="none" fill-rule="evenodd">
        <g id="dr-shafi-copy-3" transform="translate(-173.000000, -144.000000)" fill="#FFFFFF" fill-rule="nonzero">
            <g id="about" transform="translate(173.000000, 144.000000)">
                <path d="M7.5,0 C3.35786438,0 0,3.35786438 0,7.5 C0,11.6421356 3.35786438,15 7.5,15 C11.6421356,15 15,11.6421356 15,7.5 C14.9953157,3.35980621 11.6401938,0.00468426088 7.5,0 L7.5,0 Z M7.5,14 C3.91014913,14 1,11.0898509 1,7.5 C1,3.91014913 3.91014913,1 7.5,1 C11.0898509,1 14,3.91014913 14,7.5 C13.995867,11.0881375 11.0881375,13.995867 7.5,14 L7.5,14 Z" id="Shape"></path>
                <path d="M8.5,10.5 L8,10.5 L8,6 C8,5.72385763 7.77614237,5.5 7.5,5.5 L6.5,5.5 C6.22385763,5.5 6,5.72385763 6,6 C6,6.27614237 6.22385763,6.5 6.5,6.5 L7,6.5 L7,10.5 L6.5,10.5 C6.22385763,10.5 6,10.7238576 6,11 C6,11.2761424 6.22385763,11.5 6.5,11.5 L8.5,11.5 C8.77614237,11.5 9,11.2761424 9,11 C9,10.7238576 8.77614237,10.5 8.5,10.5 Z" id="Path"></path>
                <circle id="Oval" cx="7.5" cy="4" r="1"></circle>
            </g>
        </g>
    </g>
</svg>