<?xml version="1.0" encoding="UTF-8"?>
<svg width="15px" height="14px" viewBox="0 0 15 14" version="1.1" xmlns="http://www.w3.org/2000/svg" xmlns:xlink="http://www.w3.org/1999/xlink">
    <title>blog</title>
    <g id="Page-1" stroke="none" stroke-width="1" fill="none" fill-rule="evenodd">
        <g id="dr-shafi-copy-3" transform="translate(-173.000000, -195.000000)" fill="#FFFFFF" fill-rule="nonzero">
            <g id="blog" transform="translate(173.000000, 195.000000)">
                <path d="M13.868576,0.274673406 C13.67087,0.0976267763 13.4178913,0 13.1564092,0 C12.8399581,0 12.5399065,0.141888434 12.332786,0.388937543 L11.7779336,1.05129284 L10.3730364,2.72884105 L1.29435184,2.72884105 C0.580666521,2.72884105 0,3.32904168 0,4.06673597 L0,9.77115327 C0,10.4008617 0.42304836,10.9301181 0.990655958,11.0720065 L0.990655958,13.6859556 C0.990655958,13.8049284 1.05595057,13.9138561 1.15890347,13.9672212 C1.25973051,14.0190167 1.38333473,14.0099133 1.47717676,13.9364578 L5.10209077,11.1090482 L10.9002525,11.1090482 C11.6139378,11.1090482 12.1946043,10.5088476 12.1946043,9.77115327 L12.1946043,5.56943494 L14.7341093,2.53766836 C14.9245266,2.31039574 15.0180649,2.02034062 14.9971099,1.7202403 C14.9761549,1.42013999 14.8434398,1.14703614 14.6238677,0.950213029 L13.868576,0.274673406 Z M12.038201,1.69983599 L12.5499285,2.15783428 L9.1977334,6.15959037 L8.68600584,5.70159208 L12.038201,1.69983599 Z M9.60590066,7.35528295 L8.15423436,7.88516718 L8.45398219,6.3240805 L9.60590066,7.35528295 Z M11.5869089,9.77115327 C11.5869089,10.1626021 11.2786576,10.4812233 10.8999488,10.4812233 L5.00035265,10.4812233 C4.93445064,10.4812233 4.87006712,10.503511 4.81722404,10.5446336 L1.59774402,13.0556194 L1.59774402,10.7951357 C1.59774402,10.6215421 1.46168827,10.4812233 1.29404814,10.4812233 C0.91533938,10.4812233 0.607088062,10.1626021 0.607088062,9.77115327 L0.607088062,4.06673597 C0.607088062,3.67528713 0.91533938,3.35666598 1.29404814,3.35666598 L9.84673149,3.35666598 L8.02789687,5.52799849 C7.99418663,5.56817929 7.96594291,5.6391235 7.9595653,5.67239823 L7.45421535,8.30392641 C7.43295664,8.41473751 7.47091863,8.52837382 7.55322021,8.60214325 C7.63795136,8.67779616 7.7527484,8.69757264 7.85327174,8.6611588 L10.3004531,7.76745001 C10.3317338,7.75583525 10.3949026,7.71753793 10.4289165,7.67672931 L11.5869089,6.29457273 L11.5869089,9.77115327 Z M10.1689528,7.02881398 L9.65692157,6.57050179 L13.0091167,2.56874569 L13.5211479,3.02674398 L10.1689528,7.02881398 Z M14.2746174,2.12707086 L13.9183821,2.55210833 L12.4354352,1.22488643 L12.7916704,0.799848958 C12.9590069,0.600828456 13.2775838,0.576657196 13.4707344,0.749309052 L14.2257224,1.42484867 C14.3229051,1.51180243 14.3815184,1.63297264 14.3906292,1.7654437 C14.3997401,1.89791476 14.3587412,2.02630496 14.2746174,2.12707086 L14.2746174,2.12707086 Z" id="Shape"></path>
                <path d="M6.09699847,5.41969869 L2.45264792,5.41969869 C2.28500779,5.41969869 2.14895204,5.56001756 2.14895204,5.73361116 C2.14895204,5.90720475 2.28500779,6.04752362 2.45264792,6.04752362 L6.09699847,6.04752362 C6.2646386,6.04752362 6.40069435,5.90720475 6.40069435,5.73361116 C6.40069435,5.56001756 6.2646386,5.41969869 6.09699847,5.41969869 Z" id="Path"></path>
                <path d="M6.09699847,7.34272645 L2.45264792,7.34272645 C2.28500779,7.34272645 2.14895204,7.48304532 2.14895204,7.65663891 C2.14895204,7.8302325 2.28500779,7.97055137 2.45264792,7.97055137 L6.09699847,7.97055137 C6.2646386,7.97055137 6.40069435,7.8302325 6.40069435,7.65663891 C6.40069435,7.48304532 6.2646386,7.34272645 6.09699847,7.34272645 Z" id="Path"></path>
            </g>
        </g>
    </g>
</svg>