<?xml version="1.0" encoding="UTF-8"?>
<svg width="40px" height="33px" viewBox="0 0 40 33" version="1.1" xmlns="http://www.w3.org/2000/svg" xmlns:xlink="http://www.w3.org/1999/xlink">
    <title>heart-beat</title>
    <g id="Page-1" stroke="none" stroke-width="1" fill="none" fill-rule="evenodd">
        <g id="ONCOLOGY" transform="translate(-664.000000, -1178.000000)" fill="#E41E51" fill-rule="nonzero">
            <g id="Group-27" transform="translate(0.000000, 1163.000000)">
                <g id="Group-24" transform="translate(530.000000, 0.000000)">
                    <g id="heart-beat" transform="translate(134.000000, 15.000000)">
                        <path d="M38.828125,15.3166727 L37.2517188,15.3166727 C37.9761719,13.8626791 38.359375,12.2472007 38.359375,10.5721614 C38.359375,7.74826923 37.2703125,5.09335616 35.2928906,3.09653082 C33.3153906,1.09970548 30.6861719,0 27.8896094,0 C25.0930469,0 22.4638281,1.09970548 20.4863281,3.09653082 L20,3.58761164 L19.5136719,3.09660971 C17.5361719,1.09978437 14.9070312,0 12.1103906,0 C9.31375,0 6.68460937,1.09978437 4.70710937,3.09653082 C2.7296875,5.09335616 1.640625,7.74826923 1.640625,10.5721614 C1.640625,12.2471218 2.02382812,13.8626791 2.74828125,15.3166727 L1.171875,15.3166727 C0.5246875,15.3166727 0,15.8464878 0,16.5 C0,17.1535122 0.5246875,17.6833273 1.171875,17.6833273 L4.36296875,17.6833273 C4.47460937,17.8070244 4.58921875,17.9286705 4.7071875,18.0477921 L19.1714063,32.653364 C19.4002344,32.8844284 19.7001562,33 20,33 C20.2998437,33 20.5998437,32.8845073 20.8285937,32.653364 L35.2928125,18.0477921 C35.4107812,17.9286705 35.5253906,17.8070244 35.6370312,17.6833273 L38.828125,17.6833273 C39.4753125,17.6833273 40,17.1535122 40,16.5 C40,15.8464878 39.4753125,15.3166727 38.828125,15.3166727 Z M3.984375,10.5721614 C3.984375,8.38040267 4.82960938,6.31983543 6.36445312,4.76999225 C7.89921875,3.22014908 9.93984375,2.36665455 12.1103906,2.36665455 C14.2809375,2.36665455 16.3215625,3.22014908 17.8564062,4.76999225 L19.1713281,6.09776435 C19.6289062,6.55989309 20.3709375,6.55989309 20.8285938,6.09776435 L22.1435156,4.76999225 C23.6783594,3.22014908 25.7189844,2.36665455 27.8895313,2.36665455 C30.0600781,2.36665455 32.1007031,3.22014908 33.6355469,4.76999225 C35.1703906,6.31983543 36.015625,8.38040267 36.015625,10.5721614 C36.015625,12.296506 35.4921094,13.9395164 34.5215625,15.3166727 L28.3792969,15.3166727 L25.755625,11.1335319 C25.5357812,10.7830304 25.150625,10.5749225 24.7395312,10.5836792 C24.3288281,10.5929091 23.9528906,10.8186091 23.7486719,11.1786561 L19.906875,17.9521003 L14.9515625,8.07636644 C14.7451562,7.66496299 14.3192187,7.41149429 13.8644531,7.42861309 C13.4080469,7.4450219 13.0026562,7.72775823 12.8257812,8.15296716 L9.84617187,15.3166727 L5.4784375,15.3166727 C4.50789062,13.9395164 3.984375,12.2965848 3.984375,10.5721614 L3.984375,10.5721614 Z M20,30.1431324 L7.66078125,17.6833273 L10.625,17.6833273 C11.096875,17.6833273 11.5227344,17.3975143 11.7054688,16.9582632 L14.0057813,11.427786 L18.7984375,20.9792882 C18.993125,21.3674195 19.3830469,21.6163127 19.8138281,21.627436 C19.8239063,21.6276726 19.8339062,21.6278304 19.8439062,21.6278304 C20.263125,21.6278304 20.6515625,21.4012627 20.8607031,21.0326168 L24.8160937,14.0588747 L26.744375,17.1333168 C26.9592188,17.4756928 27.3328125,17.6833273 27.734375,17.6833273 L32.3392188,17.6833273 L20,30.1431324 Z" id="Shape"></path>
                    </g>
                </g>
            </g>
        </g>
    </g>
</svg>