<?xml version="1.0" encoding="UTF-8"?>
<svg width="15px" height="14px" viewBox="0 0 15 14" version="1.1" xmlns="http://www.w3.org/2000/svg" xmlns:xlink="http://www.w3.org/1999/xlink">
    <title>contact-mail</title>
    <g id="Page-1" stroke="none" stroke-width="1" fill="none" fill-rule="evenodd">
        <g id="dr-shafi-copy-3" transform="translate(-173.000000, -246.000000)" fill="#FFFFFF" fill-rule="nonzero">
            <g id="contact-mail" transform="translate(173.000000, 246.000000)">
                <path d="M5.09816684,3.21148649 L13.9191025,3.21148649 L9.10057145,7.08961126 C8.99846161,7.17171449 8.87698288,7.21180245 8.766787,7.22278809 C8.65583893,7.21160972 8.5339841,7.17152176 8.43074598,7.08961126 L4.98721877,4.31718184 C4.95073754,4.28711587 4.90955512,4.26418093 4.86423566,4.24991887 C5.02633267,4.01555848 5.11885208,3.73205179 5.11396284,3.42657382 C5.1130226,3.35661262 5.10700508,3.28453138 5.09816684,3.21148649 L5.09816684,3.21148649 Z M2.85494731,0.717360027 C2.86604212,0.719287333 2.88428273,0.726418364 2.92396077,0.745305962 C3.00237661,0.783466617 3.12705215,0.881759214 3.24909503,1.01879066 C3.49487321,1.29323901 3.74046334,1.70895887 3.8679596,1.98340722 C3.8719086,1.99150191 3.87604565,2.00036751 3.8798066,2.00942585 C4.24161013,2.6456295 4.39768962,3.13227422 4.40239081,3.43755946 C4.4074681,3.74419382 4.32717178,3.87621427 4.0734956,4.02558047 L3.41909004,4.41219802 C2.99278618,4.66371143 2.79138723,5.11450826 2.74136657,5.53504639 C2.69115787,5.95577725 2.76506057,6.36455881 2.94765476,6.687768 L4.56298344,9.54114427 C4.74595373,9.86416072 5.05830076,10.134369 5.44022538,10.30031 C5.8225261,10.4666365 6.30599642,10.5136628 6.73230028,10.2627276 L7.38670584,9.87688094 C7.64019397,9.7279002 7.79345275,9.72481651 8.05088988,9.8816992 C8.3090792,10.0389674 8.64436803,10.4188393 9.00466718,11.0554284 C9.00974447,11.0648722 9.01463371,11.0727742 9.02046318,11.0818325 C9.1893299,11.3314186 9.41931209,11.7548477 9.53026016,12.109472 C9.5853581,12.2856278 9.60698357,12.4448232 9.60002581,12.5329011 C9.59231586,12.6213644 9.59043538,12.6123061 9.56768163,12.6261827 L9.06973165,12.9187477 C7.81883917,13.4747754 6.6723131,13.3493078 5.64764186,12.8046512 C4.62109014,12.2576818 3.72880439,11.2699376 3.10674301,10.1102777 C3.10467449,10.1079649 3.10373425,10.1050739 3.10204182,10.1035321 L1.73944909,7.69671259 C1.73719252,7.69439983 1.73625228,7.69227979 1.7343718,7.6891961 C1.06022124,6.55979489 0.667389858,5.27755833 0.716658323,4.09785444 C0.765926788,2.91988512 1.23228478,1.84599032 2.33085872,1.01975431 L2.82899674,0.72815294 C2.84046765,0.721407369 2.8442286,0.716203644 2.85494731,0.717360027 L2.85494731,0.717360027 Z M2.86002459,9.9379918e-05 C2.72820324,-0.00191050507 2.59374923,0.0264208905 2.47283463,0.0983093976 L1.94611337,0.408798365 C1.93426638,0.415736666 1.92335962,0.422867698 1.91264091,0.429805999 C0.645388292,1.38035323 0.061876664,2.70364141 0.0048982485,4.06759573 C-0.052080167,5.43097187 0.392088207,6.83809785 1.12584985,8.06829716 L2.48392944,10.4668293 L2.48073263,10.4596982 C3.15864414,11.7222763 4.13009792,12.8175642 5.31724227,13.4485641 C6.50495076,14.0805277 7.91982072,14.2270029 9.36101734,13.5828973 C9.37286434,13.5776936 9.38489938,13.5719117 9.39561809,13.5651661 L9.92309155,13.2546771 C10.1669893,13.112442 10.2895963,12.8356808 10.3095293,12.5939967 C10.3300265,12.3530835 10.2820744,12.1185303 10.2093,11.8874464 C10.0667599,11.4304822 9.818161,10.9866236 9.61281305,10.6821093 C9.2248709,9.99810848 8.85028012,9.52341305 8.4173946,9.25802304 C7.98112423,8.99147665 7.45741173,8.99533126 7.03016764,9.2470374 L6.37576207,9.63365494 C6.18244917,9.74775145 5.95641598,9.73445304 5.7185358,9.63134218 C5.4817839,9.52823132 5.26252042,9.32200959 5.18109582,9.17746166 L3.56576715,6.32427812 C3.4841545,6.17895926 3.41739761,5.88253963 3.4489896,5.62119696 C3.47945331,5.36062521 3.58269143,5.15652352 3.77619238,5.04223429 L4.41198124,4.66756604 C4.42852942,4.75487299 4.4766696,4.83408526 4.54643525,4.8872789 L7.99015051,7.66028651 C8.21411518,7.84068234 8.4794503,7.94109497 8.74666591,7.95689888 C8.76020534,7.9576698 8.77412086,7.9576698 8.78784833,7.95689888 C9.05525198,7.94109497 9.31927078,7.84048961 9.54342349,7.66028651 L14.2863594,3.84152276 L14.2863594,10.1503656 C14.2863594,10.2463455 14.1795484,10.3727767 13.9700634,10.3727767 L10.6865647,10.3727767 C10.4889267,10.3716203 10.3288982,10.5350559 10.3288982,10.7364593 C10.3288982,10.9374773 10.4891147,11.1009129 10.6865647,11.0997565 L13.9700634,11.0997565 C14.5067512,11.0997565 15,10.7021533 15,10.1503656 L15,3.43389758 C15,2.88172446 14.5067512,2.484314 13.9700634,2.484314 L4.90278541,2.484314 C4.80236801,2.22701868 4.66979446,1.9543049 4.50280822,1.65788527 C4.34654068,1.32446136 4.09305255,0.883686519 3.77581629,0.529254979 C3.61559975,0.349630077 3.44278403,0.190434616 3.22671737,0.087516485 L3.22671737,0.0884801379 C3.1193422,0.0364428808 2.9916579,0.00310049006 2.86002459,9.9379918e-05 L2.86002459,9.9379918e-05 Z" id="Shape"></path>
            </g>
        </g>
    </g>
</svg>