<?xml version="1.0" encoding="UTF-8"?>
<svg width="44px" height="44px" viewBox="0 0 44 44" version="1.1" xmlns="http://www.w3.org/2000/svg" xmlns:xlink="http://www.w3.org/1999/xlink">
    <title>Group 3</title>
    <g id="Page-1" stroke="none" stroke-width="1" fill="none" fill-rule="evenodd">
        <g id="ONCOLOGY" transform="translate(-753.000000, -62.000000)">
            <g id="Group-12" transform="translate(753.000000, 62.000000)">
                <circle id="Oval" fill="#FFD9DB" cx="22" cy="22" r="22"></circle>
                <g id="clock-(1)" transform="translate(12.000000, 12.000000)" fill="#E41E51" fill-rule="nonzero">
                    <path d="M10,0 C4.48577883,0 0,4.48577883 0,10 C0,15.5142212 4.48577883,20 10,20 C15.5142212,20 20,15.5142212 20,10 C20,4.48577883 15.5142212,0 10,0 Z M13.4722646,14.5139313 C13.2944997,14.5139313 13.1166077,14.4457754 12.9813131,14.3103536 L9.50904847,10.8382161 C9.37845866,10.7083893 9.30559795,10.531896 9.30559795,10.3472646 L9.30559795,5.83333333 C9.30559795,5.44932048 9.61662292,5.13893128 10,5.13893128 C10.3833771,5.13893128 10.6944021,5.44932048 10.6944021,5.83333333 L10.6944021,10.0597636 L13.9632161,13.3284505 C14.2346954,13.600057 14.2346954,14.0388743 13.9632161,14.3103536 C13.8277944,14.4457754 13.6500295,14.5139313 13.4722646,14.5139313 Z" id="Shape"></path>
                </g>
            </g>
        </g>
    </g>
</svg>