<?xml version="1.0" encoding="UTF-8"?>
<svg width="15px" height="15px" viewBox="0 0 15 15" version="1.1" xmlns="http://www.w3.org/2000/svg" xmlns:xlink="http://www.w3.org/1999/xlink">
    <title>home</title>
    <g id="Page-1" stroke="none" stroke-width="1" fill="none" fill-rule="evenodd">
        <g id="dr-shafi-copy-3" transform="translate(-173.000000, -93.000000)" fill="#FFFFFF" fill-rule="nonzero">
            <g id="home" transform="translate(173.000000, 93.000000)">
                <path d="M14.5971701,6.52427672 C14.5967123,6.52393342 14.5963689,6.52347565 14.5960256,6.52313232 L8.47659491,0.404548652 C8.2157577,0.143623359 7.86896668,0 7.50008633,0 C7.13120601,0 6.78441499,0.143623359 6.52346334,0.404548652 L0.40723734,6.52004241 C0.405177181,6.52210236 0.403002576,6.52427672 0.401056891,6.52633667 C-0.13458071,7.06501008 -0.13366509,7.93899536 0.403689306,8.47629548 C0.649189866,8.72188567 0.973319286,8.86402131 1.31999584,8.87901305 C1.33418794,8.88038637 1.34838005,8.881073 1.3626866,8.881073 L1.6064704,8.881073 L1.6064704,13.3838654 C1.6064704,14.2750168 2.3316413,15 3.22288276,15 L5.6169997,15 C5.85975343,15 6.05649722,14.8031616 6.05649722,14.5605469 L6.05649722,11.0302734 C6.05649722,10.6236649 6.38737935,10.2929306 6.794029,10.2929306 L8.20614369,10.2929306 C8.61279334,10.2929306 8.94356102,10.6236649 8.94356102,11.0302734 L8.94356102,14.5605469 C8.94356102,14.8031616 9.14030481,15 9.38305854,15 L11.7771755,15 C12.6685314,15 13.3935878,14.2750168 13.3935878,13.3838654 L13.3935878,8.881073 L13.6197459,8.881073 C13.9885118,8.881073 14.3353028,8.73744964 14.5963689,8.47640991 C15.1342956,7.93830873 15.1345245,7.06272126 14.5971701,6.52427672 L14.5971701,6.52427672 Z M13.9747775,7.85499574 C13.8798964,7.94986726 13.7537698,8.00216675 13.6197459,8.00216675 L12.9540903,8.00216675 C12.7113366,8.00216675 12.5145928,8.19889069 12.5145928,8.44161987 L12.5145928,13.3838654 C12.5145928,13.7903595 12.1838251,14.1210938 11.7771755,14.1210938 L9.82255606,14.1210938 L9.82255606,11.0302734 C9.82255606,10.139122 9.0974996,9.41402435 8.20614369,9.41402435 L6.794029,9.41402435 C5.90267309,9.41402435 5.17750218,10.139122 5.17750218,11.0302734 L5.17750218,14.1210938 L3.22288276,14.1210938 C2.81634756,14.1210938 2.48546544,13.7903595 2.48546544,13.3838654 L2.48546544,8.44161987 C2.48546544,8.19889069 2.28872162,8.00216675 2.04596792,8.00216675 L1.39175755,8.00216675 C1.3848904,8.00170898 1.3781377,8.00136565 1.3711561,8.00125122 C1.24022247,7.9989624 1.11741496,7.94700621 1.02539517,7.85488128 C0.829681417,7.65918732 0.829681417,7.34069824 1.02539517,7.14488982 C1.02550962,7.14488982 1.02550962,7.14477539 1.02562406,7.14466096 L1.02596743,7.14431763 L7.1451692,1.02596282 C7.23993585,0.931091309 7.36594805,0.87890625 7.50008633,0.87890625 C7.63411019,0.87890625 7.76012236,0.931091309 7.85500349,1.02596282 L13.9728318,7.14305877 C13.9737475,7.1439743 13.9747775,7.14488982 13.9756931,7.14580535 C14.1703768,7.34184264 14.1700335,7.65964509 13.9747775,7.85499574 Z" id="Shape"></path>
            </g>
        </g>
    </g>
</svg>