<?xml version="1.0" encoding="UTF-8"?>
<svg width="58px" height="58px" viewBox="0 0 58 58" version="1.1" xmlns="http://www.w3.org/2000/svg" xmlns:xlink="http://www.w3.org/1999/xlink">
    <title>Group 16</title>
    <g id="Page-1" stroke="none" stroke-width="1" fill="none" fill-rule="evenodd">
        <g id="ONCOLOGY" transform="translate(-112.000000, -1182.000000)">
            <g id="Group-27" transform="translate(0.000000, 1163.000000)">
                <g id="Group-16" transform="translate(112.000000, 19.000000)">
                    <circle id="Oval-Copy" fill="#FFFFFF" cx="29" cy="29" r="29"></circle>
                    <path d="M29.4999718,34 C29.1952972,34 28.8906602,33.8799529 28.6583731,33.6403633 L21.3487411,26.0971947 C20.883753,25.6173556 20.883753,24.8393787 21.3487411,24.3597337 C21.813541,23.8800888 22.567289,23.8800888 23.0323147,24.3597337 L29.4999718,31.0343466 L35.9676665,24.3599667 C36.4326546,23.8803217 37.1863273,23.8803217 37.6510896,24.3599667 C38.1163035,24.8396117 38.1163035,25.6175885 37.6510896,26.0974276 L30.3415705,33.6405963 C30.1091705,33.8802246 29.8045335,34 29.4999718,34 Z" id="Path" fill="#000000" fill-rule="nonzero" transform="translate(29.500000, 29.000000) scale(-1, 1) rotate(-90.000000) translate(-29.500000, -29.000000) "></path>
                </g>
            </g>
        </g>
    </g>
</svg>