<?xml version="1.0" encoding="UTF-8"?>
<svg width="16px" height="11px" viewBox="0 0 16 11" version="1.1" xmlns="http://www.w3.org/2000/svg" xmlns:xlink="http://www.w3.org/1999/xlink">
    <title>mail</title>
    <g id="Page-1" stroke="none" stroke-width="1" fill="none" fill-rule="evenodd">
        <g id="ONCOLOGY" transform="translate(-1077.000000, -20.000000)" fill="#E41E51" fill-rule="nonzero">
            <g id="Group-11" transform="translate(1077.000000, 15.000000)">
                <g id="mail" transform="translate(0.000000, 5.000000)">
                    <path d="M15.8590625,0.785919444 L11.0065938,5.5 L15.8590625,10.2140806 C15.9467813,10.0348111 16,9.83662778 16,9.625 L16,1.375 C16,1.16334167 15.9467813,0.965188889 15.8590625,0.785919444 Z" id="Path"></path>
                    <path d="M14.59375,0 L1.40625,0 C1.18978125,0 0.987125,0.0520361111 0.80378125,0.137805556 L7.00575,6.17139722 C7.554125,6.70758611 8.445875,6.70758611 8.99425,6.17139722 L15.1962188,0.137805556 C15.012875,0.0520361111 14.8102188,0 14.59375,0 Z" id="Path"></path>
                    <path d="M0.1409375,0.785919444 C0.05321875,0.965188889 0,1.16334167 0,1.375 L0,9.625 C0,9.83665833 0.05321875,10.0348417 0.1409375,10.2140806 L4.99340625,5.5 L0.1409375,0.785919444 Z" id="Path"></path>
                    <path d="M10.34375,6.14811389 L9.65709375,6.81951111 C8.743375,7.712925 7.25659375,7.712925 6.342875,6.81951111 L5.65625,6.14811389 L0.80378125,10.8621944 C0.987125,10.9479639 1.18978125,11 1.40625,11 L14.59375,11 C14.8102188,11 15.012875,10.9479639 15.1962188,10.8621944 L10.34375,6.14811389 Z" id="Path"></path>
                </g>
            </g>
        </g>
    </g>
</svg>