<?xml version="1.0" encoding="UTF-8"?>
<svg width="13px" height="22px" viewBox="0 0 13 22" version="1.1" xmlns="http://www.w3.org/2000/svg" xmlns:xlink="http://www.w3.org/1999/xlink">
    <title>maps-and-flags</title>
    <g id="Page-1" stroke="none" stroke-width="1" fill="none" fill-rule="evenodd">
        <g id="ONCOLOGY" transform="translate(-112.000000, -13.000000)" fill="#E41E51" fill-rule="nonzero">
            <g id="maps-and-flags" transform="translate(112.000000, 13.000000)">
                <path d="M6.5,0 C2.91588064,0 0,2.97852516 0,6.63960961 C0,11.1831298 5.81686324,17.8532831 6.06452135,18.1350152 C6.0901763,18.1642028 6.1179418,21.8568362 6.14735175,21.8795764 C6.35423812,22.0395439 6.64250037,22.0400299 6.84988725,21.8816865 C6.88033171,21.8584417 6.90903327,18.1651036 6.93547865,18.1350152 C7.18313676,17.8532831 13,11.1831298 13,6.63960961 C13,2.97852516 10.0840843,0 6.5,0 Z M6.5,9.98018266 C4.6967405,9.98018266 3.22972113,8.48161018 3.22972113,6.63960961 C3.22972113,4.79760904 4.69677555,3.29907236 6.5,3.29907236 C8.30322445,3.29907236 9.77024382,4.79764485 9.77024382,6.63964541 C9.77024382,8.48164598 8.30322445,9.98018266 6.5,9.98018266 Z" id="Shape"></path>
            </g>
        </g>
    </g>
</svg>