<?xml version="1.0" encoding="UTF-8"?>
<svg width="20px" height="19px" viewBox="0 0 20 19" version="1.1" xmlns="http://www.w3.org/2000/svg" xmlns:xlink="http://www.w3.org/1999/xlink">
    <title>Group 31</title>
    <g id="Page-1" stroke="none" stroke-width="1" fill="none" fill-rule="evenodd">
        <g id="dr-shafi" transform="translate(-335.000000, -115.000000)" fill="#000000">
            <g id="Group-31" transform="translate(335.000000, 115.000000)">
                <path d="M4.4,0 L18.8,0 C19.4627417,5.4439014e-16 20,0.5372583 20,1.2 C20,1.8627417 19.4627417,2.4 18.8,2.4 L4.4,2.4 C3.7372583,2.4 3.2,1.8627417 3.2,1.2 C3.2,0.5372583 3.7372583,1.21743675e-16 4.4,0 Z" id="Rectangle"></path>
                <path d="M10.8,16 L18.8,16 C19.4627417,16 20,16.5372583 20,17.2 C20,17.8627417 19.4627417,18.4 18.8,18.4 L10.8,18.4 C10.1372583,18.4 9.6,17.8627417 9.6,17.2 C9.6,16.5372583 10.1372583,16 10.8,16 Z" id="Rectangle"></path>
                <path d="M1.2,8 L18.8,8 C19.4627417,8 20,8.5372583 20,9.2 C20,9.8627417 19.4627417,10.4 18.8,10.4 L1.2,10.4 C0.5372583,10.4 8.11624501e-17,9.8627417 0,9.2 C-8.11624501e-17,8.5372583 0.5372583,8 1.2,8 Z" id="Rectangle"></path>
            </g>
        </g>
    </g>
</svg>