<?xml version="1.0" encoding="UTF-8"?>
<svg width="37px" height="37px" viewBox="0 0 37 37" version="1.1" xmlns="http://www.w3.org/2000/svg" xmlns:xlink="http://www.w3.org/1999/xlink">
    <title>solidarity</title>
    <g id="Page-1" stroke="none" stroke-width="1" fill="none" fill-rule="evenodd">
        <g id="ONCOLOGY" transform="translate(-972.000000, -1177.000000)" fill="#E41E51" fill-rule="nonzero" stroke="#E41E51" stroke-width="0.8">
            <g id="Group-27" transform="translate(0.000000, 1163.000000)">
                <g id="Group-25" transform="translate(837.000000, 0.000000)">
                    <g id="solidarity" transform="translate(136.000000, 15.000000)">
                        <path d="M12.983871,22.6793443 L12.983871,17.2159806 C12.983871,16.1263565 12.0975806,15.2399784 11.0080645,15.2399784 C10.7037903,15.2399784 10.4187097,15.3150665 10.1612903,15.4381432 L10.1612903,12.1348322 C10.1612903,11.0452081 9.275,10.15883 8.18548387,10.15883 C7.88120968,10.15883 7.59612903,10.2339181 7.33870968,10.3569948 L7.33870968,8.74739991 C7.33870968,7.65777587 6.45241935,6.77139776 5.36290323,6.77139776 C4.44556452,6.77139776 3.6783871,7.40371845 3.45766129,8.2528348 C3.10879032,8.03265171 2.69951613,7.90054185 2.25806452,7.90054185 C1.01274194,7.90054185 0,8.9133841 0,10.15883 L0,19.7565548 C0,19.8508383 0.0237096774,19.9439927 0.0688709677,20.0269848 L3.45596774,26.2372773 C3.48193548,26.2841368 3.51467742,26.3281734 3.5525,26.3659997 L7.97209677,30.7860343 C8.28709677,31.1010655 8.46774194,31.5374796 8.46774194,31.9834916 L8.46774194,34.435428 C8.46774194,34.7470717 8.72064516,35 9.03225806,35 L15.8064516,35 C16.1180645,35 16.3709677,34.7470717 16.3709677,34.435428 L16.3709677,27.4217494 C16.3709677,26.7041784 16.101129,26.0199171 15.6116935,25.4954296 L12.983871,22.6793443 Z M11.0080645,16.3691225 C11.4749194,16.3691225 11.8548387,16.7490795 11.8548387,17.2159806 L11.8548387,21.4694664 L10.1612903,19.6549318 L10.1612903,17.2159806 C10.1612903,16.7490795 10.5412097,16.3691225 11.0080645,16.3691225 Z M8.18548387,11.2879741 C8.65233871,11.2879741 9.03225806,11.6679311 9.03225806,12.1348322 L9.03225806,17.2159806 L9.03225806,18.4450539 L8.65064516,18.0363038 C8.33169355,17.6947377 7.88064516,17.4982666 7.41266129,17.4982666 L7.33870968,17.4982666 L7.33870968,12.1348322 C7.33870968,11.6679311 7.71862903,11.2879741 8.18548387,11.2879741 L8.18548387,11.2879741 Z M4.51612903,8.74739991 C4.51612903,8.28049883 4.89604839,7.90054185 5.36290323,7.90054185 C5.82975806,7.90054185 6.20967742,8.28049883 6.20967742,8.74739991 L6.20967742,12.1348322 L6.20967742,17.9375037 C5.95903226,18.1633325 5.77217742,18.4597328 5.69145161,18.7990406 L4.51612903,17.3029247 L4.51612903,10.15883 L4.51612903,8.74739991 Z M15.2419355,33.8708559 L9.59677419,33.8708559 L9.59677419,31.9834916 C9.59677419,31.2297879 9.30322581,30.5206854 8.77032258,29.9877294 L4.40830645,25.6252812 L1.12903226,19.6125889 L1.12903226,10.15883 C1.12903226,9.53610706 1.63540323,9.02968594 2.25806452,9.02968594 C2.88072581,9.02968594 3.38709677,9.53610706 3.38709677,10.15883 L3.38709677,17.4982666 C3.38709677,17.6247307 3.42943548,17.7472429 3.50790323,17.8471721 L9.71758065,25.7511808 L10.605,25.0539343 L6.77419355,20.177161 L6.77419355,19.1919827 C6.77419355,18.8809035 7.02766129,18.6274107 7.33870968,18.6274107 L7.41266129,18.6274107 C7.56846774,18.6274107 7.71862903,18.6929011 7.82532258,18.80638 L14.7869355,26.2655059 C15.0799194,26.5805371 15.2419355,26.990981 15.2419355,27.4217494 L15.2419355,33.8708559 Z" id="Shape"></path>
                        <path d="M32.7419355,7.90054185 C32.3004839,7.90054185 31.8912097,8.03265171 31.5423387,8.2528348 C31.3216129,7.40371845 30.5544355,6.77139776 29.6370968,6.77139776 C28.5475806,6.77139776 27.6612903,7.65777587 27.6612903,8.74739991 L27.6612903,10.3569948 C27.403871,10.2339181 27.1187903,10.15883 26.8145161,10.15883 C25.725,10.15883 24.8387097,11.0452081 24.8387097,12.1348322 L24.8387097,15.4381432 C24.5812903,15.3150665 24.2962097,15.2399784 23.9919355,15.2399784 C22.9024194,15.2399784 22.016129,16.1263565 22.016129,17.2159806 L22.016129,22.6793443 L19.3883065,25.4954296 C18.898871,26.0199171 18.6290323,26.7041784 18.6290323,27.4217494 L18.6290323,34.435428 C18.6290323,34.7470717 18.8819355,35 19.1935484,35 L25.9677419,35 C26.2793548,35 26.5322581,34.7470717 26.5322581,34.435428 L26.5322581,31.9834916 C26.5322581,31.5374796 26.7129032,31.10163 27.0279032,30.7860343 L31.4475,26.3659997 C31.4853226,26.3281734 31.5180645,26.2841368 31.5440323,26.2372773 L34.931129,20.0269848 C34.9762903,19.9439927 35,19.8508383 35,19.7565548 L35,10.15883 C35,8.9133841 33.9872581,7.90054185 32.7419355,7.90054185 Z M28.7903226,8.74739991 C28.7903226,8.28049883 29.1702419,7.90054185 29.6370968,7.90054185 C30.1039516,7.90054185 30.483871,8.28049883 30.483871,8.74739991 L30.483871,10.15883 L30.483871,17.3029247 L29.3085484,18.798476 C29.2278226,18.4591682 29.0409677,18.1633325 28.7903226,17.9369391 L28.7903226,12.1348322 L28.7903226,8.74739991 Z M25.9677419,12.1348322 C25.9677419,11.6679311 26.3476613,11.2879741 26.8145161,11.2879741 C27.281371,11.2879741 27.6612903,11.6679311 27.6612903,12.1348322 L27.6612903,17.4982666 L27.5873387,17.4982666 C27.1193548,17.4982666 26.6683065,17.6947377 26.3493548,18.0363038 L25.9677419,18.4456185 L25.9677419,17.2159806 L25.9677419,12.1348322 Z M23.1451613,17.2159806 C23.1451613,16.7490795 23.5250806,16.3691225 23.9919355,16.3691225 C24.4587903,16.3691225 24.8387097,16.7490795 24.8387097,17.2159806 L24.8387097,19.6549318 L23.1451613,21.4694664 L23.1451613,17.2159806 Z M33.8709677,19.6125889 L30.5916935,25.6247166 L26.2296774,29.9871648 C25.6967742,30.5206854 25.4032258,31.2292233 25.4032258,31.9834916 L25.4032258,33.8708559 L19.7580645,33.8708559 L19.7580645,27.4217494 C19.7580645,26.990981 19.9200806,26.5805371 20.213629,26.2660705 L27.1752419,18.8069446 C27.281371,18.6929011 27.4315323,18.6274107 27.5873387,18.6274107 L27.6612903,18.6274107 C27.9723387,18.6274107 28.2258065,18.8809035 28.2258065,19.1919827 L28.2258065,20.177161 L24.395,25.0533697 L25.2824194,25.7506162 L31.4920968,17.8466076 C31.5705645,17.7472429 31.6129032,17.6247307 31.6129032,17.4982666 L31.6129032,10.15883 C31.6129032,9.53610706 32.1192742,9.02968594 32.7419355,9.02968594 C33.3645968,9.02968594 33.8709677,9.53610706 33.8709677,10.15883 L33.8709677,19.6125889 Z" id="Shape"></path>
                        <path d="M25.9575806,4.64747772 C25.8627419,3.12426235 25.0989516,1.75178771 23.8632258,0.881782185 C22.0595968,-0.387375772 19.6231452,-0.276719651 17.9380645,1.15051848 L17.5,1.52200688 L17.061371,1.15051848 C15.3762903,-0.276719651 12.9404032,-0.387375772 11.1362097,0.881782185 C9.90048387,1.75178771 9.13669355,3.12426235 9.04185484,4.64747772 C8.94645161,6.17520968 9.53580645,7.6368867 10.6591935,8.65819753 L17.1200806,14.5348279 C17.2279032,14.6324989 17.3639516,14.6816167 17.5,14.6816167 C17.6360484,14.6816167 17.7720968,14.6324989 17.8799194,14.5348279 L24.3408065,8.65819753 C25.463629,7.6368867 26.0529839,6.17520968 25.9575806,4.64747772 Z M17.5,13.3548724 L11.4190323,7.82376005 C10.5508065,7.03392376 10.0952419,5.90195681 10.1691935,4.7186138 C10.2425806,3.5392228 10.8325,2.47726278 11.7865323,1.80598662 C12.4295161,1.35319984 13.1769355,1.12962931 13.9232258,1.12962931 C14.7824194,1.12962931 15.6399194,1.42602964 16.3314516,2.01261999 L17.1347581,2.69349388 C17.3453226,2.87133407 17.6541129,2.87133407 17.8646774,2.69349388 L18.6685484,2.01205542 C19.9607258,0.917350224 21.8304032,0.831535273 23.2134677,1.80542205 C24.1675,2.47669821 24.7574194,3.53865823 24.8308065,4.71804923 C24.9047581,5.90195681 24.4491935,7.03392376 23.5809677,7.82319548 L17.5,13.3548724 Z" id="Shape"></path>
                    </g>
                </g>
            </g>
        </g>
    </g>
</svg>