<?xml version="1.0" encoding="UTF-8"?>
<svg width="44px" height="44px" viewBox="0 0 44 44" version="1.1" xmlns="http://www.w3.org/2000/svg" xmlns:xlink="http://www.w3.org/1999/xlink">
    <title>Group 3</title>
    <g id="Page-1" stroke="none" stroke-width="1" fill="none" fill-rule="evenodd">
        <g id="ONCOLOGY" transform="translate(-464.000000, -62.000000)">
            <g id="Group-3" transform="translate(464.000000, 62.000000)">
                <circle id="Oval" fill="#FFD9DB" cx="22" cy="22" r="22"></circle>
                <g id="phone-call" transform="translate(12.000000, 12.000000)" fill="#E41E51" fill-rule="nonzero">
                    <path d="M19.4755459,14.6779668 L16.6786137,11.8869103 C15.6797093,10.8901044 13.9815718,11.2888657 13.5820101,12.5846744 C13.2823388,13.4818387 12.2834344,13.9802416 11.3844204,13.7808415 C9.38661168,13.2824386 6.68956985,10.6907432 6.19011766,8.59745086 C5.89044634,7.70028662 6.48978897,6.70348072 7.38880291,6.40447789 C8.68737861,6.00575553 9.08694036,4.3111855 8.08803598,3.31437961 L5.29110371,0.523323096 C4.49198021,-0.174441032 3.29329495,-0.174441032 2.59406188,0.523323096 L0.696143555,2.4172543 C-1.20177477,4.41086609 0.895924431,9.69393735 5.59077503,14.3789251 C10.2856256,19.0639128 15.5798188,21.2569247 17.5776276,19.263274 L19.4755459,17.3693428 C20.174818,16.571898 20.174818,15.375731 19.4755459,14.6779668 Z" id="Path"></path>
                </g>
            </g>
        </g>
    </g>
</svg>