<?xml version="1.0" encoding="UTF-8"?>
<svg width="40px" height="40px" viewBox="0 0 40 40" version="1.1" xmlns="http://www.w3.org/2000/svg" xmlns:xlink="http://www.w3.org/1999/xlink">
    <title>patient</title>
    <g id="Page-1" stroke="none" stroke-width="1" fill="none" fill-rule="evenodd">
        <g id="ONCOLOGY" transform="translate(-357.000000, -1177.000000)" fill="#E41E51" fill-rule="nonzero" stroke="#E41E51">
            <g id="Group-27" transform="translate(0.000000, 1163.000000)">
                <g id="Group-17" transform="translate(223.000000, 0.000000)">
                    <g id="patient" transform="translate(135.000000, 15.000000)">
                        <g id="Group">
                            <path d="M14.25,15.8333333 C9.88475,15.8333333 6.33333333,12.2819167 6.33333333,7.91666667 C6.33333333,3.55141667 9.88475,0 14.25,0 C18.61525,0 22.1666667,3.55141667 22.1666667,7.91666667 C22.1666667,12.2819167 18.61525,15.8333333 14.25,15.8333333 Z M14.25,1.58333333 C10.7571667,1.58333333 7.91666667,4.42383333 7.91666667,7.91666667 C7.91666667,11.4095 10.7571667,14.25 14.25,14.25 C17.7428333,14.25 20.5833333,11.4095 20.5833333,7.91666667 C20.5833333,4.42383333 17.7428333,1.58333333 14.25,1.58333333 Z" id="Shape"></path>
                            <path d="M15.0416667,33.25 L0.791666667,33.25 C0.354666667,33.25 0,32.8953333 0,32.4583333 L0,26.125 C0,22.19675 3.19675,19 7.125,19 L21.375,19 C21.812,19 22.1666667,19.3546667 22.1666667,19.7916667 C22.1666667,20.2286667 21.812,20.5833333 21.375,20.5833333 L7.125,20.5833333 C4.06916667,20.5833333 1.58333333,23.0691667 1.58333333,26.125 L1.58333333,31.6666667 L15.0416667,31.6666667 C15.4786667,31.6666667 15.8333333,32.0213333 15.8333333,32.4583333 C15.8333333,32.8953333 15.4786667,33.25 15.0416667,33.25 Z" id="Path"></path>
                        </g>
                        <path d="M29.2916667,38 L27.7083333,38 C26.3989167,38 25.3333333,36.9344167 25.3333333,35.625 L25.3333333,31.6666667 L21.375,31.6666667 C20.0655833,31.6666667 19,30.6010833 19,29.2916667 L19,27.7083333 C19,26.3989167 20.0655833,25.3333333 21.375,25.3333333 L25.3333333,25.3333333 L25.3333333,21.375 C25.3333333,20.0655833 26.3989167,19 27.7083333,19 L29.2916667,19 C30.6010833,19 31.6666667,20.0655833 31.6666667,21.375 L31.6666667,25.3333333 L35.625,25.3333333 C36.9344167,25.3333333 38,26.3989167 38,27.7083333 L38,29.2916667 C38,30.6010833 36.9344167,31.6666667 35.625,31.6666667 L31.6666667,31.6666667 L31.6666667,35.625 C31.6666667,36.9344167 30.6010833,38 29.2916667,38 Z M21.375,26.9166667 C20.938,26.9166667 20.5833333,27.2713333 20.5833333,27.7083333 L20.5833333,29.2916667 C20.5833333,29.7286667 20.938,30.0833333 21.375,30.0833333 L26.125,30.0833333 C26.562,30.0833333 26.9166667,30.438 26.9166667,30.875 L26.9166667,35.625 C26.9166667,36.062 27.2713333,36.4166667 27.7083333,36.4166667 L29.2916667,36.4166667 C29.7286667,36.4166667 30.0833333,36.062 30.0833333,35.625 L30.0833333,30.875 C30.0833333,30.438 30.438,30.0833333 30.875,30.0833333 L35.625,30.0833333 C36.062,30.0833333 36.4166667,29.7286667 36.4166667,29.2916667 L36.4166667,27.7083333 C36.4166667,27.2713333 36.062,26.9166667 35.625,26.9166667 L30.875,26.9166667 C30.438,26.9166667 30.0833333,26.562 30.0833333,26.125 L30.0833333,21.375 C30.0833333,20.938 29.7286667,20.5833333 29.2916667,20.5833333 L27.7083333,20.5833333 C27.2713333,20.5833333 26.9166667,20.938 26.9166667,21.375 L26.9166667,26.125 C26.9166667,26.562 26.562,26.9166667 26.125,26.9166667 L21.375,26.9166667 Z" id="Shape"></path>
                    </g>
                </g>
            </g>
        </g>
    </g>
</svg>